# xmcd
#
# Track frame offsets: 
#        150
#        12105
#        24280
#        42250
#        57672
#        72035
#        85485
#        98005
#        112367
#        124540
#        137615
#        150927
#        160500
#        172510
#        184210
#        196080
#
# Disc length: 2774 seconds
#
# Revision: 4
# Processed by: cddbd v1.5.2PL0 Copyright (c) Steve Scherf et al.
# Submitted via: ExactAudioCopyFreeDBPlugin 1.0
#
DISCID=be0ad410
DTITLE=Various Artist - 32 Country Super Hits 1965 - 1978 - CD 1
DYEAR=1988
DGENRE=Country
TTITLE0=Johnny Paycheck - Take this job and shove it
TTITLE1=La Costa Tucker - He took m e for a ride
TTITLE2=David Houston - Nashville
TTITLE3=Red Simpson - I'm a truck
TTITLE4=Bob Luman - Lonely women make good lovers
TTITLE5=Lynn Anderson - Rose garden
TTITLE6=Jack and Misty - Tennessee birdwalk
TTITLE7=Margo Smith - It only hurts for a little while
TTITLE8=Donna Fargo - Funny face
TTITLE9=Faron Young - It's four in the morning
TTITLE10=Dave Dudley - The pool shark
TTITLE11=David Houston - Have a little faith
TTITLE12=Del Reeves - Girl on the billboard
TTITLE13=Henson Cargill - Skip a rope
TTITLE14=Johnny Russell - Workin man blues
TTITLE15=Jeannie C. Riley - Country girl
EXTD=YEAR: 1988
EXTT0=
EXTT1=
EXTT2=
EXTT3=
EXTT4=
EXTT5=
EXTT6=
EXTT7=
EXTT8=
EXTT9=
EXTT10=
EXTT11=
EXTT12=
EXTT13=
EXTT14=
EXTT15=
PLAYORDER=
